<svg xmlns="http://www.w3.org/2000/svg" viewBox="0 0 512 512" width="512" height="512">
  <circle cx="256" cy="256" r="256" fill="#2EA92F"/>
  <path fill="#FFFFFF" d="M256 96c-88.4 0-160 71.6-160 160 0 28.5 7.5 55.3 20.6 78.5L97 416l84.6-19.1C204 410.3 229.4 416 256 416c88.4 0 160-71.6 160-160s-71.6-160-160-160zm0 290c-23.6 0-46.4-6.1-66.2-17.6l-4.7-2.7-49.6 11.2 10.6-48.6-3.1-5C130.6 302.6 124 280 124 256c0-72.8 59.2-132 132-132s132 59.2 132 132-59.2 132-132 132z"/>
  <path fill="#FFFFFF" d="M212.5 178c-3.6-8-7.4-8.2-10.8-8.3-2.8-.1-6-.1-9.2-.1-3.2 0-8.4 1.2-12.9 6-4.4 4.8-17 16.6-17 40.5 0 23.9 17.4 47 19.8 50.2 2.4 3.2 33.6 53.8 82.8 73.3 41 16.2 49.4 13 58.4 12.2 9-.8 29-11.8 33-23.2 4-11.4 4-21.2 2.8-23.2-1.2-2-4.4-3.2-9.2-5.6-4.8-2.4-29-14.4-33.6-16-4.6-1.6-7.9-2.4-11.2 2.4-3.3 4.8-12.9 16-15.8 19.2-2.9 3.2-5.8 3.6-10.6 1.2-4.8-2.4-20.4-7.6-38.9-24.2-14.4-12.8-24.1-28.6-26.9-33.4-2.8-4.8-.3-7.4 2.1-9.8 2.4-2.4 5.3-6.2 7.9-9.4 2.6-3.2 3.5-5.6 5.3-9.2 1.8-3.6 0.9-6.8-0.7-9.6-1.6-2.8-9.6-23.2-13.1-32.1z"/>
</svg>
